<?xml version="1.0" standalone="no"?>
<!DOCTYPE svg PUBLIC "-//W3C//DTD SVG 20010904//EN"
 "http://www.w3.org/TR/2001/REC-SVG-20010904/DTD/svg10.dtd">
<svg version="1.0" xmlns="http://www.w3.org/2000/svg"
 width="512.000000pt" height="512.000000pt" viewBox="0 0 512.000000 512.000000"
 preserveAspectRatio="xMidYMid meet">

<g transform="translate(0.000000,512.000000) scale(0.100000,-0.100000)"
fill="#000000" stroke="none">
<path d="M2612 5113 c-7 -3 -19 -18 -27 -34 -14 -26 -18 -27 -43 -17 -15 6
-70 11 -122 11 -112 1 -181 -21 -260 -84 -101 -80 -199 -237 -256 -409 -25
-75 -28 -100 -28 -215 -1 -122 1 -133 26 -181 49 -93 131 -142 252 -151 253
-19 612 161 711 357 43 84 57 205 33 298 -9 37 -9 47 2 50 28 10 50 43 50 77
0 60 -58 93 -112 64 -21 -12 -21 -11 0 16 13 16 22 42 22 61 0 64 -80 94 -131
48 -15 -14 -16 -12 -12 29 4 37 2 48 -18 66 -21 20 -58 26 -87 14z"/>
<path d="M4280 5103 c-19 -10 -45 -33 -57 -52 -22 -32 -23 -44 -23 -215 0
-124 -4 -189 -13 -205 -6 -14 -37 -42 -67 -62 -83 -58 -127 -113 -187 -239
-280 -582 -366 -741 -538 -1000 -312 -468 -647 -804 -1113 -1118 l-173 -116
-27 18 c-55 36 -189 94 -257 112 -91 24 -333 25 -412 2 -29 -8 -53 -13 -53
-11 0 15 90 154 138 215 109 136 239 240 395 314 74 35 76 35 107 19 27 -14
37 -15 61 -4 62 25 64 73 8 134 -52 56 -71 57 -187 9 -154 -64 -297 -161 -413
-281 -61 -63 -169 -200 -169 -214 0 -5 -4 -9 -9 -9 -4 0 -11 22 -14 48 -16
136 -107 316 -202 400 -38 33 -290 199 -352 231 -30 16 -99 14 -132 -4 -41
-21 -77 -68 -85 -110 -6 -28 4 -72 44 -201 75 -243 110 -313 224 -448 l57 -66
-40 0 c-53 0 -173 -24 -245 -49 -246 -86 -447 -309 -518 -576 -28 -108 -31
-341 -5 -462 90 -419 373 -812 702 -976 146 -73 181 -79 470 -82 353 -4 445
16 631 137 103 67 291 256 369 372 l60 89 110 23 c188 39 366 97 538 176 77
36 81 34 92 -40 18 -120 106 -315 195 -433 104 -138 277 -274 431 -340 40 -17
116 -43 168 -57 83 -22 117 -25 251 -26 174 0 240 11 388 67 151 56 242 117
372 247 162 163 251 321 296 532 58 270 -1 588 -149 808 -58 87 -140 180 -197
227 -52 42 -59 51 -58 83 1 53 -87 331 -133 424 -80 161 -178 270 -336 374
-50 33 -108 63 -128 66 -67 13 -146 -29 -181 -96 -21 -40 -18 -263 4 -349 l18
-66 -44 -18 c-57 -23 -143 -103 -173 -160 -22 -42 -34 -50 -134 -100 -133 -66
-215 -126 -321 -237 -162 -169 -253 -365 -286 -618 l-13 -94 -105 -47 c-175
-79 -489 -183 -505 -167 -3 3 10 52 29 109 53 157 69 268 63 434 -5 155 -21
229 -72 341 -34 74 -101 180 -129 203 -9 7 -16 17 -16 21 0 4 34 29 76 55 195
122 451 324 642 509 416 402 713 847 1061 1586 56 119 115 230 132 247 16 18
57 51 89 73 38 26 69 57 87 88 28 46 28 50 31 235 l4 187 68 0 68 0 4 -212 c4
-243 7 -255 93 -338 59 -56 89 -115 120 -233 46 -174 59 -278 59 -492 0 -164
-4 -223 -23 -328 -32 -181 -82 -356 -147 -515 -65 -159 -73 -192 -50 -227 18
-27 61 -34 97 -14 39 20 149 297 204 514 57 224 69 324 69 570 0 239 -17 379
-70 562 -35 118 -66 177 -135 248 l-58 60 -3 220 c-3 199 -5 223 -23 254 -39
66 -63 76 -193 79 -97 2 -123 0 -152 -15z m-3461 -2262 c192 -122 259 -206
297 -368 15 -66 35 -245 28 -252 -8 -9 -152 95 -212 153 -68 65 -136 161 -171
240 -21 48 -101 300 -101 318 0 11 -10 16 159 -91z m3337 -212 c169 -117 269
-266 343 -513 23 -76 41 -139 39 -141 -4 -4 -231 141 -297 189 -123 90 -180
211 -188 399 -7 141 -6 141 103 66z m-186 -573 c0 -99 3 -117 21 -140 26 -33
79 -36 109 -6 16 16 20 33 20 84 l0 65 75 -52 c83 -56 84 -60 49 -146 -22 -52
-18 -87 12 -110 54 -42 100 -20 135 63 l22 55 31 -22 c21 -15 49 -23 93 -25
63 -4 64 -5 138 -74 85 -79 173 -205 216 -307 78 -185 95 -406 46 -593 -86
-328 -337 -579 -665 -665 -78 -20 -121 -25 -222 -26 -153 0 -263 24 -394 87
-243 115 -406 304 -491 566 -37 114 -46 323 -20 451 54 271 238 514 482 638
l42 21 16 -58 c32 -108 74 -147 134 -122 43 18 57 58 35 106 -40 93 -36 176
13 246 23 34 77 77 96 78 4 0 7 -51 7 -114z"/>
<path d="M3537 1638 c-40 -31 -36 -115 8 -132 52 -20 115 18 115 69 0 55 -79
96 -123 63z"/>
<path d="M3737 1358 c-40 -31 -36 -115 8 -132 52 -20 115 18 115 69 0 55 -79
96 -123 63z"/>
<path d="M3337 1138 c-40 -31 -36 -115 8 -132 52 -20 115 18 115 69 0 55 -79
96 -123 63z"/>
<path d="M1330 4150 c-180 -28 -346 -152 -425 -315 -45 -92 -57 -151 -57 -260
1 -369 345 -636 711 -550 127 30 269 132 342 246 101 158 117 376 39 544 -74
161 -218 284 -380 323 -69 16 -169 21 -230 12z m240 -178 c30 -12 72 -36 93
-53 l37 -30 0 -89 c0 -107 -24 -192 -78 -276 -90 -139 -247 -224 -415 -224
-96 0 -111 7 -145 63 -100 169 -76 374 61 511 55 56 129 99 194 116 61 15 191
5 253 -18z"/>
<path d="M1265 3885 c-30 -29 -33 -74 -6 -106 19 -23 19 -24 0 -48 -24 -30
-24 -72 0 -102 23 -29 89 -33 118 -6 18 16 20 16 36 0 27 -27 95 -23 118 6 24
30 24 72 0 102 -19 24 -19 25 0 48 60 74 -38 172 -112 112 -23 -19 -24 -19
-48 0 -33 26 -77 24 -106 -6z"/>
<path d="M3006 4107 c-16 -16 -29 -21 -42 -16 -36 14 -118 9 -159 -10 -22 -10
-53 -32 -69 -49 -24 -26 -32 -29 -53 -21 -42 16 -131 11 -172 -11 -93 -47
-141 -147 -121 -247 12 -54 11 -56 -19 -87 -16 -17 -37 -48 -45 -68 -18 -42
-21 -124 -7 -161 8 -22 4 -31 -29 -66 -133 -140 -33 -375 160 -374 66 0 115
19 158 63 32 32 33 32 82 20 28 -7 67 -9 88 -5 45 8 116 48 136 76 12 18 18
19 52 10 60 -17 104 -13 161 13 96 45 146 152 119 254 -13 50 -12 51 14 71 15
11 38 41 50 66 19 40 22 58 17 120 -5 64 -3 76 14 91 27 25 25 75 -6 104 -20
19 -31 22 -67 16 l-42 -7 22 24 c29 31 28 72 -3 102 -29 30 -64 32 -97 5 l-25
-19 4 43 c4 36 1 47 -18 65 -30 28 -74 27 -103 -2z"/>
</g>
</svg>
