<?xml version="1.0" standalone="no"?>
<!DOCTYPE svg PUBLIC "-//W3C//DTD SVG 20010904//EN"
 "http://www.w3.org/TR/2001/REC-SVG-20010904/DTD/svg10.dtd">
<svg version="1.0" xmlns="http://www.w3.org/2000/svg"
 width="512.000000pt" height="511.000000pt" viewBox="0 0 512.000000 511.000000"
 preserveAspectRatio="xMidYMid meet">

<g transform="translate(0.000000,511.000000) scale(0.100000,-0.100000)"
fill="#000000" stroke="none">
<path d="M1745 4709 c-425 -36 -829 -147 -1067 -291 -195 -118 -402 -310 -518
-478 -179 -262 -209 -596 -76 -875 95 -200 252 -324 622 -490 394 -178 549
-270 694 -415 168 -167 259 -338 366 -683 68 -218 92 -284 145 -390 115 -230
313 -408 613 -552 291 -141 504 -184 761 -155 531 59 1009 381 1358 915 156
240 343 653 407 902 42 162 59 275 66 438 33 736 -383 1367 -1144 1736 -401
194 -805 291 -1416 339 -151 12 -667 11 -811 -1z m905 -158 c363 -42 520 -68
706 -115 331 -84 666 -238 917 -421 112 -82 340 -311 411 -415 261 -378 341
-818 234 -1299 -84 -383 -309 -774 -585 -1016 -404 -355 -866 -465 -1384 -331
-363 95 -567 252 -670 520 -17 44 -56 167 -85 271 -100 350 -162 501 -264 640
-185 253 -362 375 -805 553 -370 149 -460 198 -565 308 -108 115 -157 238
-167 428 -6 122 11 216 59 314 44 91 182 229 296 296 239 139 575 229 1012
272 158 15 740 12 890 -5z"/>
<path d="M1745 4355 c-283 -30 -551 -97 -763 -191 -162 -71 -298 -191 -355
-311 -28 -60 -32 -77 -31 -153 1 -194 118 -347 350 -461 115 -56 153 -61 189
-25 l25 25 90 -36 c68 -26 90 -39 88 -52 -7 -52 9 -67 141 -135 413 -209 645
-446 789 -807 39 -100 84 -243 152 -489 18 -63 46 -143 62 -177 82 -175 233
-298 454 -372 416 -139 900 -34 1254 273 292 252 489 622 545 1021 14 103 9
128 -35 153 l-30 17 0 97 c0 94 1 97 30 126 36 37 37 45 6 163 -155 592 -661
1018 -1441 1213 -450 113 -1106 165 -1520 121z m443 -532 c46 -22 100 -77 120
-122 25 -59 19 -152 -12 -206 -73 -124 -236 -157 -348 -72 -136 105 -114 315
42 398 46 24 149 25 198 2z"/>
</g>
</svg>
