<?xml version="1.0" standalone="no"?>
<!DOCTYPE svg PUBLIC "-//W3C//DTD SVG 20010904//EN"
 "http://www.w3.org/TR/2001/REC-SVG-20010904/DTD/svg10.dtd">
<svg version="1.0" xmlns="http://www.w3.org/2000/svg"
 width="512.000000pt" height="512.000000pt" viewBox="0 0 512.000000 512.000000"
 preserveAspectRatio="xMidYMid meet">

<g transform="translate(0.000000,512.000000) scale(0.100000,-0.100000)"
fill="#000000" stroke="none">
<path d="M2652 5000 c-67 -41 -72 -60 -72 -298 l0 -212 -160 -320 -160 -320 0
-1015 0 -1015 -260 0 -260 0 0 383 c0 435 -5 471 -70 605 -46 91 -133 193
-206 239 l-44 28 0 113 0 112 40 0 c27 0 47 7 61 21 19 19 20 30 17 143 -3
116 -5 125 -33 171 -22 36 -45 57 -84 77 l-53 28 -403 0 c-259 0 -414 -4 -432
-11 -56 -21 -102 -61 -128 -112 -22 -45 -25 -63 -25 -164 0 -133 11 -153 80
-153 l40 0 0 -112 0 -113 -44 -28 c-73 -46 -160 -148 -206 -239 -73 -150 -71
-94 -68 -1356 3 -1122 3 -1127 24 -1173 31 -66 78 -114 142 -146 l57 -28 545
1 c300 0 561 1 580 2 19 0 753 -1 1630 -4 1763 -5 1640 -9 1710 59 18 17 41
50 51 72 18 38 19 118 19 1828 l0 1787 -160 320 -160 320 0 212 c0 238 -5 257
-72 298 -32 20 -53 20 -948 20 -895 0 -916 0 -948 -20z m248 -280 l0 -180
-100 0 -100 0 0 173 c0 96 3 177 7 180 3 4 48 7 100 7 l93 0 0 -180z m320 115
c0 -62 -1 -65 -27 -70 -16 -3 -61 -14 -100 -24 l-73 -18 0 89 0 88 100 0 100
0 0 -65z m320 5 l0 -60 -100 0 -100 0 0 60 0 60 100 0 100 0 0 -60z m320 -30
l0 -89 -38 13 c-20 7 -57 17 -82 20 -83 13 -80 11 -80 82 l0 64 100 0 100 0 0
-90z m320 -90 l0 -180 -100 0 -100 0 0 180 0 180 100 0 100 0 0 -180z m318 -2
l2 -178 -100 0 -100 0 0 180 0 181 98 -3 97 -3 3 -177z m-900 -68 c109 -12
232 -38 232 -50 0 -14 -137 -41 -267 -52 -89 -8 -157 -8 -245 0 -131 11 -268
38 -268 52 0 5 34 16 75 25 147 33 314 42 473 25z m-453 -208 c54 -13 123 -16
295 -16 216 0 284 7 398 40 21 6 22 4 22 -68 0 -91 -7 -100 -114 -134 -170
-54 -442 -54 -612 0 -107 34 -114 43 -114 134 l0 74 28 -7 c15 -4 59 -14 97
-23z m-245 -81 c0 -72 9 -97 46 -135 39 -39 110 -70 219 -98 77 -19 116 -22
275 -22 193 1 270 11 380 53 118 45 153 87 158 189 l4 72 239 0 c131 0 239 -2
239 -5 0 -3 -57 -120 -127 -260 l-128 -255 -892 0 c-491 0 -893 2 -893 5 0 3
57 120 127 260 l128 255 112 0 113 0 0 -59z m1793 -286 l127 -255 0 -1766 0
-1766 -34 -34 -34 -34 -192 0 -192 0 -34 34 -34 34 0 1766 0 1766 127 255 c70
140 130 255 133 255 3 0 63 -115 133 -255z m-511 -2057 c2 -970 7 -1771 12
-1780 8 -17 -34 -18 -798 -18 -497 0 -806 4 -806 9 0 6 4 12 9 16 27 16 45
145 111 802 38 386 70 709 70 717 0 9 -9 25 -20 36 -19 19 -33 20 -200 20
l-180 0 0 980 0 980 900 0 900 0 2 -1762z m-2795 1570 c23 -24 28 -38 31 -98
l4 -70 -462 0 -462 0 4 69 c4 72 20 104 63 122 11 4 194 7 407 6 l388 -2 27
-27z m-87 -388 l0 -100 -340 0 -340 0 0 100 0 100 340 0 340 0 0 -100z m93
-251 c63 -41 133 -121 168 -191 45 -88 59 -165 59 -320 l0 -138 -661 0 -661 0
4 168 c4 143 8 175 28 227 41 107 112 198 204 259 l39 26 387 0 387 0 46 -31z
m227 -949 l0 -180 -183 0 c-173 0 -185 -1 -203 -21 -18 -20 -18 -28 15 -357
18 -185 35 -356 38 -379 l6 -43 -497 0 -496 0 0 580 0 580 660 0 660 0 0 -180z
m1027 -362 c-4 -35 -12 -116 -18 -180 l-12 -118 -617 0 -617 0 -12 118 c-6 64
-14 145 -18 180 l-6 62 653 0 653 0 -6 -62z m-47 -444 c0 -42 -80 -827 -86
-849 -12 -38 -57 -87 -98 -106 -38 -17 -71 -19 -416 -19 -342 0 -379 2 -415
19 -49 22 -91 69 -100 112 -4 17 -26 220 -49 450 l-42 419 603 0 603 0 0 -26z
m-1271 -536 c31 -327 35 -345 79 -431 2 -4 -214 -7 -480 -7 -447 0 -486 2
-523 19 -48 22 -69 44 -90 94 -12 30 -15 86 -15 302 l0 265 503 0 503 0 23
-242z"/>
<path d="M2920 3000 c-25 -25 -25 -24 7 -158 27 -111 27 -112 8 -131 -11 -11
-56 -33 -100 -51 -342 -134 -398 -336 -114 -406 l65 -16 13 -55 c11 -47 10
-57 -3 -72 -8 -9 -24 -37 -35 -61 -74 -162 65 -340 319 -407 90 -24 310 -24
400 0 92 24 200 80 250 128 53 51 90 129 90 189 0 45 -28 120 -55 150 -12 14
-13 26 -3 72 l12 56 64 16 c286 70 229 272 -113 406 -44 18 -89 40 -100 51
-19 19 -19 20 9 135 31 128 28 158 -18 170 -53 13 -66 -7 -106 -163 -6 -24
-12 -43 -13 -43 -1 0 -27 10 -57 22 -79 31 -241 32 -319 0 -30 -12 -56 -20
-58 -18 -2 2 -14 43 -27 92 -24 88 -42 114 -78 114 -10 0 -27 -9 -38 -20z
m514 -299 c150 -74 244 -257 222 -433 l-7 -56 -52 23 c-99 46 -172 59 -317 59
-144 0 -218 -13 -316 -58 l-52 -24 -6 37 c-22 134 18 269 112 373 106 117 274
149 416 79z m-640 -261 c-8 -41 -16 -75 -17 -77 -4 -3 -107 34 -114 41 -10 10
37 54 91 86 28 16 52 28 53 26 2 -1 -4 -36 -13 -76z m1080 -1 c17 -16 27 -31
23 -35 -7 -7 -110 -44 -114 -41 -2 2 -33 148 -33 155 0 9 98 -53 124 -79z
m-457 -274 c175 -33 302 -138 279 -230 -11 -41 -74 -103 -140 -135 -69 -34
-189 -60 -276 -60 -147 0 -306 55 -374 130 -60 67 -60 113 0 180 94 104 311
153 511 115z"/>
</g>
</svg>
