<?xml version="1.0" standalone="no"?>
<!DOCTYPE svg PUBLIC "-//W3C//DTD SVG 20010904//EN"
 "http://www.w3.org/TR/2001/REC-SVG-20010904/DTD/svg10.dtd">
<svg version="1.0" xmlns="http://www.w3.org/2000/svg"
 width="512.000000pt" height="512.000000pt" viewBox="0 0 512.000000 512.000000"
 preserveAspectRatio="xMidYMid meet">

<g transform="translate(0.000000,512.000000) scale(0.100000,-0.100000)"
fill="#000000" stroke="none">
<path d="M3322 4860 c-132 -35 -513 -249 -540 -304 -23 -47 13 -106 64 -106
10 0 77 36 148 79 192 116 329 180 415 193 297 46 673 -210 1046 -712 l78
-105 -353 -5 -352 -5 -19 -24 c-26 -32 -24 -67 6 -96 l24 -25 459 0 c379 0
462 -2 471 -14 8 -9 11 -64 9 -172 l-3 -159 -1414 -3 c-1125 -2 -1416 0 -1423
10 -13 22 -10 312 4 326 9 9 203 12 814 12 796 0 801 0 828 21 34 27 36 77 3
107 l-23 22 -680 0 -679 1 95 90 c52 50 152 138 222 196 69 58 129 114 131
125 11 41 -32 98 -74 98 -51 0 -504 -402 -534 -474 -15 -35 -17 -36 -68 -36
-72 -1 -129 -29 -164 -81 -28 -42 -28 -43 -31 -230 -3 -169 -1 -193 16 -232
21 -48 70 -91 115 -102 23 -6 27 -12 23 -29 -2 -11 -10 -49 -16 -83 l-12 -62
-79 39 c-152 77 -314 101 -454 70 -105 -24 -338 -152 -555 -304 -184 -130
-531 -425 -572 -488 -12 -19 -29 -27 -63 -31 -66 -9 -123 -44 -151 -93 -23
-39 -24 -48 -24 -233 0 -140 4 -201 14 -225 17 -41 81 -94 122 -102 l31 -6 6
-201 c5 -187 20 -350 49 -538 6 -42 8 -88 4 -104 -4 -15 -33 -55 -65 -89 -32
-34 -73 -83 -90 -111 -45 -71 -85 -204 -78 -260 6 -62 48 -122 100 -146 41
-18 106 -19 2457 -19 2322 0 2417 1 2455 19 48 22 69 44 90 94 21 51 19 94
-10 186 -28 89 -82 176 -148 238 -71 67 -73 79 -49 256 35 247 43 376 43 677
0 360 -19 619 -72 990 -19 134 -83 493 -95 532 -3 12 3 18 26 23 40 9 99 60
116 102 10 23 14 85 14 218 0 163 -2 190 -19 223 -10 20 -27 45 -38 54 -29 26
-88 48 -131 48 -34 0 -40 4 -55 35 -48 100 -274 383 -432 540 -331 330 -646
460 -933 385z m1307 -1682 c166 -860 202 -1500 120 -2107 -12 -85 -19 -178
-17 -208 l5 -53 -299 0 -298 0 -12 26 c-16 34 -1 56 48 70 48 13 79 52 70 88
-16 63 -77 83 -154 51 -79 -34 -122 -101 -122 -193 0 -81 39 -143 113 -177
l52 -25 362 0 361 0 26 -31 c36 -43 53 -78 71 -145 11 -42 12 -61 4 -71 -10
-11 -283 -13 -1608 -11 l-1596 3 1 50 c2 69 42 145 119 225 34 36 70 80 80 99
27 53 30 138 10 283 -15 110 -22 136 -41 155 -13 13 -32 23 -42 23 -22 0 -32
39 -32 126 0 47 2 52 25 58 13 3 28 14 33 24 5 9 12 159 15 332 8 399 36 711
98 1075 21 126 67 361 74 383 3 9 265 12 1263 12 l1258 0 13 -62z m-2996 -143
c52 -14 172 -68 223 -101 20 -14 21 -17 8 -87 -6 -39 -22 -148 -33 -242 -12
-93 -24 -185 -27 -202 l-5 -33 -682 0 -682 1 75 71 c248 233 697 538 873 594
57 17 181 17 250 -1z m144 -932 c-4 -58 -7 -137 -7 -175 l0 -68 -793 0 c-603
0 -796 3 -805 12 -13 13 -18 319 -5 331 3 4 369 7 811 7 l805 0 -6 -107z
m-303 -720 c9 -128 23 -254 42 -381 22 -146 3 -221 -72 -279 -73 -58 -154
-217 -154 -304 l0 -29 -559 0 c-454 0 -561 3 -570 13 -8 10 -7 29 4 71 22 82
38 109 120 196 114 122 122 169 80 460 -8 58 -18 160 -21 228 l-7 122 565 0
566 0 6 -97z"/>
<path d="M3959 2810 c-156 -27 -284 -141 -330 -293 -18 -57 -21 -85 -16 -153
4 -62 3 -85 -7 -93 -11 -9 -16 -1 -26 36 -29 118 -131 243 -227 279 -36 14
-50 15 -81 5 -87 -27 -181 -124 -224 -231 -17 -43 -22 -76 -22 -150 -1 -87 2
-101 32 -165 21 -43 54 -91 88 -125 l54 -56 -39 -38 -38 -37 -7 42 c-22 138
-172 299 -279 299 -43 0 -141 -62 -185 -118 -136 -171 -124 -411 28 -561 l54
-52 -137 -137 c-115 -116 -137 -142 -137 -167 0 -63 55 -99 108 -71 15 8 83
71 151 140 l125 125 49 -50 c93 -95 234 -142 356 -121 34 6 87 22 116 36 102
47 205 167 205 240 0 106 -136 240 -283 277 l-49 12 36 36 36 35 52 -50 c65
-63 106 -87 182 -109 132 -38 287 0 391 96 56 52 105 133 105 174 0 96 -159
247 -283 270 -40 8 -54 19 -36 31 6 4 60 7 118 8 103 1 110 3 183 39 169 83
260 260 228 439 -20 111 -65 148 -195 161 -27 3 -71 2 -96 -3z m125 -156 c12
-5 16 -21 16 -68 0 -118 -76 -220 -189 -252 -50 -15 -124 -14 -139 1 -4 4 -7
35 -6 69 1 106 72 206 170 241 41 15 121 19 148 9z m-711 -273 c36 -40 67
-119 67 -171 0 -77 -68 -199 -121 -215 -30 -10 -83 36 -114 99 -51 104 -27
236 56 311 46 41 55 39 112 -24z m394 -413 c39 -18 113 -88 113 -107 0 -4 -22
-29 -49 -54 -47 -44 -122 -77 -176 -77 -71 0 -186 61 -214 113 -12 23 -11 28
8 53 74 94 207 124 318 72z m-878 -33 c110 -100 106 -292 -10 -389 -17 -14
-35 -26 -40 -26 -5 0 -29 20 -53 43 -105 106 -98 286 15 381 17 14 35 26 40
26 5 0 26 -16 48 -35z m425 -439 c46 -27 96 -79 96 -100 0 -19 -67 -82 -109
-102 -20 -10 -67 -20 -106 -22 -62 -3 -76 0 -124 25 -30 15 -67 44 -83 65
l-30 36 23 32 c71 95 229 127 333 66z"/>
<path d="M3153 798 c-30 -15 -49 -63 -37 -96 17 -48 40 -52 297 -52 l238 0 24
25 c40 39 32 96 -16 120 -22 12 -74 15 -256 14 -138 0 -237 -5 -250 -11z"/>
<path d="M3291 4513 c-11 -10 -24 -32 -27 -50 -5 -26 -1 -37 19 -57 51 -51
127 -22 127 48 0 62 -72 97 -119 59z"/>
<path d="M3481 4354 c-28 -36 -26 -60 8 -95 35 -34 59 -36 95 -8 33 26 36 79
6 109 -30 30 -83 27 -109 -6z"/>
<path d="M2741 4144 c-24 -30 -26 -43 -10 -77 11 -24 47 -47 73 -47 7 0 25 9
40 21 33 26 36 79 6 109 -30 30 -83 27 -109 -6z"/>
<path d="M4031 4144 c-24 -30 -26 -43 -10 -77 11 -24 47 -47 73 -47 7 0 25 9
40 21 33 26 36 79 6 109 -30 30 -83 27 -109 -6z"/>
</g>
</svg>
