<?xml version="1.0" standalone="no"?>
<!DOCTYPE svg PUBLIC "-//W3C//DTD SVG 20010904//EN"
 "http://www.w3.org/TR/2001/REC-SVG-20010904/DTD/svg10.dtd">
<svg version="1.0" xmlns="http://www.w3.org/2000/svg"
 width="512.000000pt" height="512.000000pt" viewBox="0 0 512.000000 512.000000"
 preserveAspectRatio="xMidYMid meet">

<g transform="translate(0.000000,512.000000) scale(0.100000,-0.100000)"
fill="#000000" stroke="none">
<path d="M3003 4701 c-194 -53 -438 -195 -520 -303 -92 -120 -107 -279 -41
-416 l21 -44 -31 -30 -30 -31 -64 48 c-123 92 -260 144 -405 152 l-93 6 0 -80
0 -80 71 -7 c99 -9 153 -23 235 -62 86 -40 165 -109 216 -188 21 -33 38 -62
38 -66 0 -4 -30 -13 -67 -20 -318 -58 -610 -241 -803 -501 -58 -78 -170 -287
-170 -317 0 -10 -7 -12 -22 -8 -25 6 -162 32 -220 41 -31 5 -38 10 -43 38 -17
77 -114 257 -140 257 -13 0 -105 -92 -105 -106 0 -5 12 -27 26 -48 22 -32 66
-137 61 -143 -1 -1 -62 -15 -134 -32 -182 -41 -412 -119 -441 -149 -24 -23
-25 -34 -10 -103 2 -9 -20 -36 -54 -65 -118 -101 -214 -254 -254 -404 -24 -89
-25 -301 -2 -385 43 -158 109 -275 214 -379 71 -71 184 -147 262 -176 130 -49
159 -53 399 -57 l231 -5 6 -33 c4 -19 22 -65 41 -103 65 -130 204 -231 347
-253 35 -6 479 -59 988 -120 509 -60 949 -114 979 -119 112 -20 254 -5 373 40
66 25 190 104 231 147 l28 30 305 -76 c287 -71 306 -75 332 -61 22 13 35 38
74 150 54 157 57 182 23 215 l-24 25 120 0 c114 0 121 1 144 25 25 24 25 26
25 215 0 189 0 191 -25 215 -23 24 -30 25 -144 25 l-120 0 24 25 c34 33 31 58
-23 215 -60 173 -61 174 -196 141 -53 -12 -106 -25 -118 -28 -13 -2 4 11 37
29 78 43 176 136 219 207 45 74 65 137 79 242 10 83 12 87 44 104 48 26 137
123 167 183 81 160 69 346 -31 495 l-35 52 -2 130 c-1 127 -2 132 -37 205 -94
197 -287 304 -501 279 -61 -7 -64 -7 -121 31 -156 104 -327 117 -492 36 -71
-35 -157 -112 -194 -172 -18 -29 -25 -32 -88 -39 -82 -8 -198 -45 -255 -81
l-41 -26 -36 21 c-151 90 -320 152 -482 175 -59 9 -122 16 -140 16 -32 1 -36
5 -70 75 l-36 74 38 37 37 37 44 -21 c103 -50 212 -53 323 -12 183 70 408 455
410 700 0 74 -3 91 -27 130 -53 91 -174 121 -325 81z m181 -157 c20 -19 20
-51 2 -129 -30 -127 -137 -331 -219 -418 -41 -43 -103 -67 -172 -66 -111 1
-114 -5 105 214 l200 200 -57 57 -58 58 -201 -201 -202 -202 -12 44 c-16 57
-6 122 25 175 82 139 519 339 589 268z m1013 -978 c28 -14 72 -43 97 -66 46
-43 46 -43 99 -34 28 4 90 8 137 8 69 0 93 -4 128 -22 63 -33 114 -84 147
-144 36 -65 45 -176 21 -252 -18 -57 -10 -86 34 -122 16 -14 44 -55 62 -92 28
-57 33 -76 33 -142 -1 -129 -64 -229 -185 -290 -32 -16 -62 -35 -67 -42 -4 -7
-10 -63 -14 -124 -4 -99 -9 -119 -37 -177 -41 -83 -129 -166 -209 -198 -47
-19 -77 -23 -158 -24 -88 0 -107 4 -158 27 -75 35 -156 113 -196 189 -39 72
-58 85 -135 92 -154 15 -286 153 -286 300 0 56 -19 81 -89 117 -77 39 -143
106 -183 188 -31 62 -33 73 -33 172 0 97 2 110 31 170 73 155 246 252 416 233
60 -7 84 8 114 71 34 73 74 117 133 149 95 52 201 57 298 13z m-1733 -168 c4
-18 10 -70 13 -115 l6 -83 80 0 80 0 -6 116 -5 117 72 -6 c118 -10 330 -82
424 -143 21 -14 22 -17 9 -32 -24 -27 -64 -113 -82 -177 -14 -46 -16 -83 -12
-170 6 -126 24 -187 89 -286 l41 -64 -23 -90 c-27 -108 -79 -248 -117 -313
-15 -26 -92 -113 -171 -194 -138 -141 -144 -149 -140 -183 5 -42 30 -35 -267
-70 -115 -14 -250 -30 -298 -36 -48 -7 -90 -10 -92 -7 -3 3 0 31 6 64 16 85 6
254 -21 339 -47 151 -157 315 -264 395 -33 24 -45 39 -40 50 37 84 4 120 -153
171 -45 14 -73 28 -73 37 0 29 86 188 140 261 170 227 398 374 667 431 125 26
129 26 137 -12z m-1509 -843 l7 -75 80 0 81 0 -6 75 c-5 72 -5 75 16 75 30 -1
181 -35 269 -61 l73 -21 -87 -44 c-113 -57 -131 -90 -88 -160 l21 -32 -141 46
-140 47 -140 -47 -141 -46 21 32 c43 70 25 103 -88 160 l-87 44 75 22 c68 21
229 58 256 59 7 1 14 -28 19 -74z m2383 -127 c5 -7 13 -32 17 -55 3 -23 22
-74 41 -114 63 -131 191 -233 331 -262 33 -7 58 -18 64 -29 7 -14 6 -18 -5
-18 -28 0 -180 -51 -266 -89 -81 -36 -98 -40 -327 -66 -133 -15 -249 -25 -259
-21 -14 5 2 26 83 109 55 56 114 124 132 150 50 74 108 205 138 311 15 53 30
96 34 96 4 0 11 -6 17 -12z m628 -649 c97 -67 200 -98 324 -100 l85 -1 -125
-33 -125 -32 -40 37 c-50 48 -155 115 -203 131 -32 10 -34 13 -17 20 36 14 56
9 101 -22z m-193 -129 c159 -49 296 -184 353 -349 109 -315 -85 -655 -413
-726 l-33 -7 0 116 0 116 -80 0 -80 0 0 -116 0 -116 -27 6 c-16 3 -107 15
-203 26 -96 11 -192 23 -212 26 l-38 6 0 204 0 204 -80 0 -80 0 0 -196 0 -197
-32 6 c-18 2 -216 26 -440 53 l-408 49 0 182 0 183 -80 0 -80 0 0 -173 0 -174
-57 8 c-32 4 -104 13 -161 18 -125 13 -184 37 -245 99 -65 66 -91 129 -91 222
-2 180 118 299 321 320 48 5 220 25 380 45 161 19 302 35 313 35 19 0 20 -7
20 -160 l0 -160 80 0 80 0 2 172 3 173 310 37 c171 20 331 39 358 43 l47 6 0
-176 0 -175 80 0 80 0 0 185 c0 141 3 185 13 186 6 0 57 6 112 14 118 16 201
12 288 -15z m911 -117 c9 -26 16 -48 16 -50 0 -1 -63 -34 -140 -73 -76 -38
-144 -78 -150 -89 -17 -33 -11 -71 15 -96 l24 -25 256 0 255 0 0 -80 0 -80
-255 0 -256 0 -24 -25 c-26 -25 -32 -63 -15 -96 6 -11 74 -51 150 -89 77 -39
140 -72 140 -73 0 -13 -33 -97 -38 -97 -30 -1 -431 107 -428 115 104 228 113
418 31 617 -14 35 -27 67 -28 72 -2 7 379 112 420 115 6 1 18 -20 27 -46z"/>
<path d="M1680 2800 l0 -80 80 0 80 0 0 80 0 80 -80 0 -80 0 0 -80z"/>
<path d="M2000 2800 l0 -80 80 0 80 0 0 80 0 80 -80 0 -80 0 0 -80z"/>
<path d="M2000 2480 l0 -80 80 0 80 0 0 80 0 80 -80 0 -80 0 0 -80z"/>
<path d="M3520 1040 l0 -80 80 0 80 0 0 80 0 80 -80 0 -80 0 0 -80z"/>
<path d="M2320 960 l0 -80 80 0 80 0 0 80 0 80 -80 0 -80 0 0 -80z"/>
</g>
</svg>
